<?xml version="1.0" standalone="no"?>
<!DOCTYPE svg PUBLIC "-//W3C//DTD SVG 1.1//EN"
"http://www.w3.org/Graphics/SVG/1.1/DTD/svg11.dtd">
<svg width = "980px" height = "1068px" viewBox="470 -47 980 1068" version = "1.1"
xmlns = "http://www.w3.org/2000/svg" xmlns:xlink = "http://www.w3.org/1999/xlink">
<line x1="1190.89" y1="55.8509" x2="1192.89" y2="57.8509" stroke-width="1.000000" stroke="black" />
<line x1="1192.89" y1="55.8509" x2="1190.89" y2="57.8509" stroke-width="1.000000" stroke="black" />
<line x1="1201.99" y1="62.3188" x2="1203.99" y2="64.3188" stroke-width="1.000000" stroke="black" />
<line x1="1203.99" y1="62.3188" x2="1201.99" y2="64.3188" stroke-width="1.000000" stroke="black" />
<line x1="1250.18" y1="96.5763" x2="1252.18" y2="98.5763" stroke-width="1.000000" stroke="black" />
<line x1="1252.18" y1="96.5763" x2="1250.18" y2="98.5763" stroke-width="1.000000" stroke="black" />
<line x1="1289.49" y1="137.24" x2="1291.49" y2="139.24" stroke-width="1.000000" stroke="black" />
<line x1="1291.49" y1="137.24" x2="1289.49" y2="139.24" stroke-width="1.000000" stroke="black" />
<line x1="1315.05" y1="168.077" x2="1317.05" y2="170.077" stroke-width="1.000000" stroke="black" />
<line x1="1317.05" y1="168.077" x2="1315.05" y2="170.077" stroke-width="1.000000" stroke="black" />
<line x1="1329.85" y1="193.235" x2="1331.85" y2="195.235" stroke-width="1.000000" stroke="black" />
<line x1="1331.85" y1="193.235" x2="1329.85" y2="195.235" stroke-width="1.000000" stroke="black" />
<line x1="1351.38" y1="229.361" x2="1353.38" y2="231.361" stroke-width="1.000000" stroke="black" />
<line x1="1353.38" y1="229.361" x2="1351.38" y2="231.361" stroke-width="1.000000" stroke="black" />
<line x1="1372.28" y1="265.816" x2="1374.28" y2="267.816" stroke-width="1.000000" stroke="black" />
<line x1="1374.28" y1="265.816" x2="1372.28" y2="267.816" stroke-width="1.000000" stroke="black" />
<line x1="1364.82" y1="314.499" x2="1366.82" y2="316.499" stroke-width="1.000000" stroke="black" />
<line x1="1366.82" y1="314.499" x2="1364.82" y2="316.499" stroke-width="1.000000" stroke="black" />
<line x1="1389.2" y1="324.762" x2="1391.2" y2="326.762" stroke-width="1.000000" stroke="black" />
<line x1="1391.2" y1="324.762" x2="1389.2" y2="326.762" stroke-width="1.000000" stroke="black" />
<line x1="1395.26" y1="334.514" x2="1397.26" y2="336.514" stroke-width="1.000000" stroke="black" />
<line x1="1397.26" y1="334.514" x2="1395.26" y2="336.514" stroke-width="1.000000" stroke="black" />
<line x1="1404.25" y1="397.074" x2="1406.25" y2="399.074" stroke-width="1.000000" stroke="black" />
<line x1="1406.25" y1="397.074" x2="1404.25" y2="399.074" stroke-width="1.000000" stroke="black" />
<line x1="1407.27" y1="489.641" x2="1409.27" y2="491.641" stroke-width="1.000000" stroke="black" />
<line x1="1409.27" y1="489.641" x2="1407.27" y2="491.641" stroke-width="1.000000" stroke="black" />
<line x1="1398.52" y1="558.42" x2="1400.52" y2="560.42" stroke-width="1.000000" stroke="black" />
<line x1="1400.52" y1="558.42" x2="1398.52" y2="560.42" stroke-width="1.000000" stroke="black" />
<line x1="1374.74" y1="632.17" x2="1376.74" y2="634.17" stroke-width="1.000000" stroke="black" />
<line x1="1376.74" y1="632.17" x2="1374.74" y2="634.17" stroke-width="1.000000" stroke="black" />
<line x1="1353.89" y1="686.141" x2="1355.89" y2="688.141" stroke-width="1.000000" stroke="black" />
<line x1="1355.89" y1="686.141" x2="1353.89" y2="688.141" stroke-width="1.000000" stroke="black" />
<line x1="1343.18" y1="708.255" x2="1345.18" y2="710.255" stroke-width="1.000000" stroke="black" />
<line x1="1345.18" y1="708.255" x2="1343.18" y2="710.255" stroke-width="1.000000" stroke="black" />
<line x1="1328.24" y1="729.15" x2="1330.24" y2="731.15" stroke-width="1.000000" stroke="black" />
<line x1="1330.24" y1="729.15" x2="1328.24" y2="731.15" stroke-width="1.000000" stroke="black" />
<line x1="1290.6" y1="782.886" x2="1292.6" y2="784.886" stroke-width="1.000000" stroke="black" />
<line x1="1292.6" y1="782.886" x2="1290.6" y2="784.886" stroke-width="1.000000" stroke="black" />
<line x1="1271" y1="810.989" x2="1273" y2="812.989" stroke-width="1.000000" stroke="black" />
<line x1="1273" y1="810.989" x2="1271" y2="812.989" stroke-width="1.000000" stroke="black" />
<line x1="1235.41" y1="849.084" x2="1237.41" y2="851.084" stroke-width="1.000000" stroke="black" />
<line x1="1237.41" y1="849.084" x2="1235.41" y2="851.084" stroke-width="1.000000" stroke="black" />
<line x1="1192.33" y1="882.424" x2="1194.33" y2="884.424" stroke-width="1.000000" stroke="black" />
<line x1="1194.33" y1="882.424" x2="1192.33" y2="884.424" stroke-width="1.000000" stroke="black" />
<line x1="1134.6" y1="920.829" x2="1136.6" y2="922.829" stroke-width="1.000000" stroke="black" />
<line x1="1136.6" y1="920.829" x2="1134.6" y2="922.829" stroke-width="1.000000" stroke="black" />
<line x1="1123.72" y1="929.23" x2="1125.72" y2="931.23" stroke-width="1.000000" stroke="black" />
<line x1="1125.72" y1="929.23" x2="1123.72" y2="931.23" stroke-width="1.000000" stroke="black" />
<line x1="1057.34" y1="952.949" x2="1059.34" y2="954.949" stroke-width="1.000000" stroke="black" />
<line x1="1059.34" y1="952.949" x2="1057.34" y2="954.949" stroke-width="1.000000" stroke="black" />
<line x1="1013.5" y1="961.635" x2="1015.5" y2="963.635" stroke-width="1.000000" stroke="black" />
<line x1="1015.5" y1="961.635" x2="1013.5" y2="963.635" stroke-width="1.000000" stroke="black" />
<line x1="988.404" y1="964.784" x2="990.404" y2="966.784" stroke-width="1.000000" stroke="black" />
<line x1="990.404" y1="964.784" x2="988.404" y2="966.784" stroke-width="1.000000" stroke="black" />
<line x1="890.827" y1="970.814" x2="892.827" y2="972.814" stroke-width="1.000000" stroke="black" />
<line x1="892.827" y1="970.814" x2="890.827" y2="972.814" stroke-width="1.000000" stroke="black" />
<line x1="847.007" y1="962.767" x2="849.007" y2="964.767" stroke-width="1.000000" stroke="black" />
<line x1="849.007" y1="962.767" x2="847.007" y2="964.767" stroke-width="1.000000" stroke="black" />
<g transform = "translate(960.443 486.678) rotate(-72.4228)">
 <ellipse cx="0" cy="0" rx="490.003" ry="440.874" fill="none" stroke="purple" stroke-width="1" />
</g>
</svg>
